# AST/ASF file generated using VICON BodyLanguage
# -----------------------------------------------
:version 1.10
:name VICON
:units
  mass 1.0
  length 0.45
  angle deg
:documentation
   .ast/.asf automatically generated from VICON data using
   VICON BodyBuilder and BodyLanguage model FoxedUp or BRILLIANT.MOD
:root
   order TX TY TZ RX RY RZ
   axis XYZ
   position 0 0 0  
   orientation 0 0 0 
:bonedata
  begin
     id 1 
     name lhipjoint
     direction 0.528046 -0.759594 0.379717 
     length 2.39752 
     axis 0 0 0  XYZ
  end
  begin
     id 2 
     name lfemur
     direction 0.34202 -0.939693 0  
     length 7.31175  
     axis 0 0 20  XYZ
    dof rx ry rz
    limits (-160.0 20.0)
           (-70.0 70.0)
           (-60.0 70.0)
  end
  begin
     id 3 
     name ltibia
     direction 0.34202 -0.939693 0   
     length 7.52482   
     axis 0 0 20   XYZ
    dof rx
    limits (-10.0 170.0)
  end
  begin
     id 4 
     name lfoot
     direction 0.0675379 -0.185559 0.980309   
     length 2.00961   
     axis -90 7.62852e-016 20   XYZ
    dof rx rz
    limits (-45.0 90.0)
           (-70.0 20.0)
  end
  begin
     id 5 
     name ltoes
     direction 1.5352e-011 -4.22286e-011 1   
     length 1.01383   
     axis -90 7.62852e-016 20   XYZ
    dof rx
    limits (-90.0 20.0)
  end
  begin
     id 6 
     name rhipjoint
     direction -0.510274 -0.769251 0.384544   
     length 2.36742  
     axis 0 0 0  XYZ 
  end
  begin
     id 7 
     name rfemur
     direction -0.34202 -0.939693 0   
     length 7.45325   
     axis 0 0 -20   XYZ
    dof rx ry rz
    limits (-160.0 20.0)
           (-70.0 70.0)
           (-70.0 60.0)
  end
  begin
     id 8 
     name rtibia
     direction -0.34202 -0.939693 0   
     length 7.49587   
     axis 0 0 -20   XYZ
    dof rx
    limits (-10.0 170.0)
 end
 begin
     id 9 
     name rfoot
     direction -0.106475 -0.292536 0.950308   
     length 2.20898  
     axis -90 -7.62852e-016 -20   XYZ
    dof rx rz
    limits (-45.0 90.0)
           (-20.0 70.0)
  end
  begin
     id 10 
     name rtoes
     direction -1.53597e-011 -4.22023e-011 1   
     length 1.10065   
     axis -90 -7.62852e-016 -20   XYZ
    dof rx
    limits (-90.0 20.0)
  end
  begin
     id 11 
     name lowerback
     direction 0.0260024 0.998026 -0.0571652   
     length 2.11214   
     axis 0 0 0   XYZ
    dof rx ry rz
    limits (-20.0 45.0)
           (-30.0 30.0)
           (-30.0 30.0)
  end
  begin
     id 12 
     name upperback
     direction 0.0216202 0.999542 -0.0211766   
     length 2.11689   
     axis 0 0 0   XYZ
    dof rx ry rz
    limits (-20.0 45.0)
           (-30.0 30.0)
           (-30.0 30.0)
  end
  begin
     id 13 
     name thorax
     direction 0.00883312 0.999944 0.00589057   
     length 2.11821   
     axis 0 0 0   XYZ
    dof rx ry rz
    limits (-20.0 45.0)
           (-30.0 30.0)
           (-30.0 30.0)
  end
  begin
     id 14 
     name lowerneck
     direction -0.059386 0.994433 0.0870401   
     length 1.81176   
     axis 0 0 0   XYZ
    dof rx ry rz
    limits (-20.0 45.0)
           (-30.0 30.0)
           (-30.0 30.0)
  end
  begin
     id 15 
     name upperneck
     direction 0.0506457 0.97328 -0.223967   
     length 1.82382   
     axis 0 0 0   XYZ
    dof rx ry rz
    limits (-20.0 45.0)
           (-30.0 30.0)
           (-30.0 30.0)
  end
  begin
     id 16
     name head
     direction 0.0205902 0.996147 -0.0852487  
     length 1.84805  
     axis 0 0 0   XYZ
    dof rx ry rz
    limits (-20.0 45.0)
           (-30.0 30.0)
           (-30.0 30.0)
  end
  begin
     id 17 
     name lclavicle
     direction 0.949493 0.303881 -0.0782325  
     length 3.60584  
     axis 0 0 0   XYZ
    dof ry rz
    limits (-20.0 10.0)
           (0.0 20.0)
  end
  begin
     id 18 
     name lhumerus
     direction 1 -4.48965e-011 1.48782e-027   
     length 4.95681   
     axis 180 -30 -90   XYZ
    dof rx ry rz
    limits (-60.0 90.0)
           (-90.0 90.0)
           (-90.0 90.0)
  end
  begin
     id 19
     name lradius
     direction 1 -4.48952e-011 2.06528e-027   
     length 3.40915   
     axis 180 -30 -90   XYZ
    dof rx
    limits (-10.0 170.0)
  end
  begin
     id 20
     name lwrist
     direction 1 -4.48964e-011 1.28021e-027   
     length 1.70457   
     axis -1.61767e-015 90 90   XYZ
    dof ry
    limits (-180.0 0.0)
 end
  begin
     id 21 
     name lhand
     direction 1 -4.49094e-011 2.54887e-027   
     length 0.616403   
     axis -1.63363e-015 90 90   XYZ
    dof rx rz
    limits (-90.0 90.0)
           (-45.0 45.0)
  end
  begin
     id 22 
     name lfingers
     direction 1 -4.49002e-011 5.11407e-027   
     length 0.49696   
     axis -3.26723e-015 90 90   XYZ
    dof rx
    limits (0.0 90.0)
  end
  begin
     id 23
     name lthumb
     direction 0.707107 -6.34998e-011 0.707107   
     length 0.713539   
     axis -90 45 -2.25915e-014   XYZ
    dof rx rz
    limits (-45.0 45.0)
           (-45.0 45.0)
  end
  begin
     id 24 
     name rclavicle
     direction -0.937751 0.334612 -0.0930482   
     length 3.46287  
     axis 0 0 0   XYZ 
    dof ry rz
    limits (-10.0 20.0)
           (-20.0 0.0)
  end
  begin
     id 25 
     name rhumerus
     direction -1 -4.48962e-011 3.59972e-027  
     length 5.352   
     axis 180 30 90   XYZ
    dof rx ry rz
    limits (-90.0 60.0)
           (-90.0 90.0)
           (-90.0 90.0)
  end
  begin
     id 26 
     name rradius
     direction -1 -4.48987e-011 -3.76925e-027   
     length 3.43721   
     axis 180 30 90   XYZ
    dof rx
    limits (-10.0 170.0)
  end
  begin
     id 27 
     name rwrist
     direction -1 -4.48943e-011 1.28112e-027   
     length 1.7186   
     axis -1.61767e-015 -90 -90   XYZ
    dof ry
    limits (-180.0 0.0)
  end
  begin
     id 28
     name rhand
     direction -1 -4.49027e-011 2.55483e-027   
     length 0.72009   
     axis -1.63363e-015 -90 -90   XYZ
    dof rx rz
    limits (-90.0 90.0)
           (-45.0 45.0)
  end
  begin
     id 29
     name rfingers
     direction -1 -4.48827e-011 5.14506e-027   
     length 0.580555   
     axis -3.26723e-015 -90 -90   XYZ
    dof rx
    limits (0.0 90.0)
  end
  begin
     id 30
     name rthumb
     direction -0.707107 -6.34936e-011 0.707107   
     length 0.833564   
     axis -90 -45 2.25915e-014   XYZ
    dof rx rz
    limits (-45.0 45.0)
           (-45.0 45.0)
  end
:hierarchy
  begin
    root lhipjoint rhipjoint lowerback
    lhipjoint lfemur
    lfemur ltibia
    ltibia lfoot
    lfoot ltoes
    rhipjoint rfemur
    rfemur rtibia
    rtibia rfoot
    rfoot rtoes
    lowerback upperback
    upperback thorax
    thorax lowerneck lclavicle rclavicle
    lowerneck upperneck
    upperneck head
    lclavicle lhumerus
    lhumerus lradius
    lradius lwrist
    lwrist lhand lthumb
    lhand lfingers
    rclavicle rhumerus
    rhumerus rradius
    rradius rwrist
    rwrist rhand rthumb
    rhand rfingers
  end

#!OML:ASF H:\Terrain\Patient Classification 1\Terrain2\Thursday\justin.ASF
:FULLY-SPECIFIED
:DEGREES
699
root 23.8311 18.8002 -0.350427 -41.0787 75.4137 -32.8453
lowerback 3.61151 2.05698 5.93583
upperback 4.26868 2.92645 2.41771
thorax 2.55435 1.6413 -0.855633
lowerneck -10.4542 -0.882903 -8.42038
upperneck 43.2912 2.43845 3.19781
head 17.6932 0.821304 3.69038
rclavicle 2.89604e-014 1.64991e-014
rhumerus -32.2378 -5.68615 -78.4351
rradius 35.3928
rwrist -12.0363
rhand -20.9938 13.4856
rfingers 7.12502
rthumb 5.38029 -16.4261
lclavicle 2.89604e-014 1.64991e-014
lhumerus -45.64 11.3962 81.6621
lradius 28.1726
lwrist 1.44524
lhand -13.2211 20.6218
lfingers 7.12502
lthumb 12.88 50.2044
rfemur 14.0746 0.186733 24.8443
rtibia 49.7649
rfoot -33.255 8.88521
rtoes -10.4499
lfemur -15.8872 2.31764 -7.73618
ltibia 21.5191
lfoot 28.3168 2.77954
ltoes 0.254692
700
root 23.9771 18.6954 -0.373719 -42.3022 75.2014 -34.0401
lowerback 3.3654 2.14668 6.21078
upperback 4.22991 3.03168 2.60894
thorax 2.66429 1.70113 -0.800589
lowerneck -10.5173 -1.01566 -8.51091
upperneck 43.2531 2.23092 3.25195
head 17.7051 0.72994 3.69817
rclavicle -1.8605e-015 -1.94809e-014
rhumerus -32.6919 -5.75855 -78.124
rradius 35.826
rwrist -12.5372
rhand -21.0119 13.7706
rfingers 7.12502
rthumb 5.36283 -16.1416
lclavicle -1.8605e-015 -1.94809e-014
lhumerus -45.5163 11.1728 81.8439
lradius 28.1609
lwrist 1.14339
lhand -12.8657 20.4264
lfingers 7.12502
lthumb 13.2226 49.987
rfemur 13.9592 0.033335 24.8629
rtibia 51.2748
rfoot -33.2162 9.58437
rtoes -10.1809
lfemur -15.1532 2.32172 -7.4115
ltibia 21.6207
lfoot 28.3352 1.80722
ltoes 4.00485
701
root 24.1242 18.5882 -0.401285 -43.4276 74.9442 -35.1524
lowerback 3.13357 2.0998 6.60014
upperback 4.1707 2.95674 2.74013
thorax 2.74409 1.67381 -0.871153
lowerneck -10.5743 -0.992102 -8.37839
upperneck 43.1014 2.27649 3.06331
head 17.631 0.744171 3.58429
rclavicle -1.19861e-014 -6.36111e-015
rhumerus -32.9068 -5.48335 -78.041
rradius 36.0361
rwrist -12.9575
rhand -21.1969 13.8365
rfingers 7.12502
rthumb 5.1842 -16.0801
lclavicle -1.19861e-014 -6.36111e-015
lhumerus -45.5532 10.8729 82.0177
lradius 28.4024
lwrist 1.33104
lhand -12.7054 20.4423
lfingers 7.12502
lthumb 13.3772 49.9928
rfemur 13.8477 -0.0594069 24.9282
rtibia 52.7365
rfoot -33.0235 9.91793
rtoes -10.3197
lfemur -14.5186 2.47311 -7.0816
ltibia 22.1133
lfoot 26.54 0.195477
ltoes 9.92349
702
root 24.2783 18.4841 -0.43727 -45.0864 74.5043 -36.8923
lowerback 2.86102 2.08148 7.65363
upperback 4.01289 2.92598 2.69518
thorax 2.79563 1.68564 -1.48965
lowerneck -10.5784 -0.993122 -8.06529
upperneck 42.9997 2.22887 2.89496
head 17.5796 0.753178 3.4348
rclavicle -8.10979e-015 1.0138e-014
rhumerus -33.2725 -5.6584 -78.2125
rradius 36.2426
rwrist -13.2216
rhand -21.7351 13.8548
rfingers 7.12502
rthumb 4.66452 -16.0738
lclavicle -8.10979e-015 1.0138e-014
lhumerus -45.6039 10.1148 81.9994
lradius 28.6354
lwrist 1.804
lhand -12.9919 20.736
lfingers 7.12502
lthumb 13.101 50.3045
rfemur 13.6806 -0.185601 25.1943
rtibia 54.1787
rfoot -32.8262 10.1843
rtoes -10.6393
lfemur -13.9594 3.30229 -6.58362
ltibia 22.8056
lfoot 22.7942 -2.94026
ltoes 7.52227
703
root 24.4378 18.3828 -0.475871 -46.4729 74.0292 -38.2532
lowerback 2.65415 2.16779 8.57217
upperback 3.89136 3.03531 2.72785
thorax 2.84963 1.76389 -1.95318
lowerneck -10.6089 -1.08285 -7.89342
upperneck 42.9918 2.02882 2.9085
head 17.5983 0.702012 3.37798
rclavicle -7.49325e-015 3.83654e-014
rhumerus -33.7357 -5.97419 -78.2519
rradius 36.4982
rwrist -13.4454
rhand -22.1745 13.8381
rfingers 7.12502
rthumb 4.2403 -16.0994
lclavicle -7.49325e-015 3.83654e-014
lhumerus -45.5695 9.48726 82.0222
lradius 28.7348
lwrist 1.88322
lhand -13.5423 21.1394
lfingers 7.12502
lthumb 12.5704 50.7413
rfemur 13.6231 -0.346389 25.2443
rtibia 55.6792
rfoot -32.455 11.2673
rtoes -9.09942
lfemur -13.21 4.22124 -6.17493
ltibia 23.5521
lfoot 18.479 -5.88706
ltoes 1.698
704
root 24.5826 18.292 -0.512022 -45.289 74.3027 -36.821
lowerback 2.7387 2.15306 7.94879
upperback 3.84633 3.01887 2.79385
thorax 2.71086 1.73122 -1.54937
lowerneck -10.7301 -1.0823 -8.02573
upperneck 42.9948 2.11132 2.81386
head 17.6299 0.699472 3.37446
rclavicle 1.57321e-014 2.78299e-015
rhumerus -34.0412 -5.49852 -78.0548
rradius 36.8132
rwrist -13.9226
rhand -22.1583 13.7179
rfingers 7.12502
rthumb 4.25587 -16.2193
lclavicle 1.57321e-014 2.78299e-015
lhumerus -45.6272 9.60009 82.2303
lradius 28.8858
lwrist 1.64913
lhand -13.4411 21.0749
lfingers 7.12502
lthumb 12.668 50.6707
rfemur 13.5833 -0.475191 24.0963
rtibia 57.35
rfoot -32.0502 12.2456
rtoes -8.58047
lfemur -12.3634 4.61018 -6.90607
ltibia 24.3343
lfoot 14.9084 -7.47069
ltoes 2.81525
705
root 24.6883 18.1998 -0.539269 -44.4103 74.6724 -35.7233
lowerback 3.29679 2.01052 7.05256
upperback 3.68455 2.88124 3.014
thorax 2.15258 1.6178 -0.862739
lowerneck -10.8616 -1.01263 -8.42441
upperneck 43.099 2.43348 2.65692
head 17.7096 0.742423 3.43635
rclavicle 1.79151e-014 1.58034e-014
rhumerus -34.4496 -4.86048 -77.6795
rradius 37.2644
rwrist -14.1711
rhand -22.1137 13.7712
rfingers 7.12502
rthumb 4.29895 -16.1651
lclavicle 1.79151e-014 1.58034e-014
lhumerus -45.6746 10.2497 82.3767
lradius 28.8279
lwrist 1.13649
lhand -13.0989 20.6975
lfingers 7.12502
lthumb 12.9979 50.2726
rfemur 13.187 -0.502748 23.3046
rtibia 59.2313
rfoot -31.3766 12.3375
rtoes -9.16522
lfemur -11.8084 4.80395 -7.56473
ltibia 24.9679
lfoot 11.799 -8.57205
ltoes 3.96016
706
root 24.7875 18.105 -0.559215 -45.9228 74.6678 -37.0704
lowerback 3.97693 1.86035 6.96601
upperback 3.45857 2.76377 3.31026
thorax 1.5086 1.53513 -0.54631
lowerneck -10.9075 -0.996105 -8.61661
upperneck 43.1723 2.61078 2.4834
head 17.7604 0.760302 3.42574
rclavicle -6.45584e-015 4.7758e-014
rhumerus -34.8658 -4.61216 -77.408
rradius 37.5587
rwrist -14.1913
rhand -22.0587 13.9211
rfingers 7.12502
rthumb 4.35208 -16.0142
lclavicle -6.45584e-015 4.7758e-014
lhumerus -45.5941 10.5539 82.403
lradius 28.6059
lwrist 1.01413
lhand -13.6323 20.5095
lfingers 7.12502
lthumb 12.4837 50.1166
rfemur 12.6849 -0.499874 23.534
rtibia 61.2119
rfoot -30.0314 12.8204
rtoes -7.3209
lfemur -11.3136 5.04874 -7.41127
ltibia 25.2209
lfoot 8.97189 -9.41999
ltoes 2.90568
707
root 24.9151 18.0215 -0.579649 -45.4416 75.3624 -36.1767
lowerback 4.52072 1.75685 6.27405
upperback 3.34373 2.65692 3.14321
thorax 1.05149 1.45473 -0.36067
lowerneck -10.9376 -1.02343 -8.55729
upperneck 43.166 2.62021 2.32046
head 17.7711 0.75202 3.34116
rclavicle 3.16968e-015 -1.80397e-014
rhumerus -35.0913 -4.45747 -77.3826
rradius 37.4941
rwrist -14.5797
rhand -21.6196 13.9136
rfingers 7.12502
rthumb 4.77608 -16.0126
lclavicle 3.16968e-015 -1.80397e-014
lhumerus -45.4373 10.479 82.2426
lradius 28.3713
lwrist 1.08489
lhand -14.1908 20.2864
lfingers 7.12502
lthumb 11.9451 49.9256
rfemur 12.689 -0.404575 22.5825
rtibia 62.9742
rfoot -28.0345 14.6934
rtoes -2.13608
lfemur -10.4578 5.25525 -8.33759
ltibia 25.2575
lfoot 6.74843 -9.76105
ltoes 4.42626
708
root 25.0452 17.9525 -0.597179 -40.456 77.0833 -30.5232
lowerback 5.20299 1.74971 4.08673
upperback 3.28484 2.59838 2.509
thorax 0.530953 1.37764 0.1722
lowerneck -10.9707 -1.08258 -8.45369
upperneck 43.1881 2.50183 2.31847
head 17.8027 0.72027 3.3043
rclavicle 2.60097e-014 2.01766e-014
rhumerus -35.2598 -4.59596 -77.3968
rradius 37.1672
rwrist -14.7105
rhand -21.3773 14.1945
rfingers 7.12502
rthumb 5.01007 -15.7263
lclavicle 2.60097e-014 2.01766e-014
lhumerus -45.1562 10.8315 81.6455
lradius 27.857
lwrist 0.216499
lhand -14.3888 20.1984
lfingers 7.12502
lthumb 11.7542 49.8486
rfemur 12.8647 -0.480064 19.693
rtibia 64.7442
rfoot -25.7493 16.4299
rtoes 0.0841317
lfemur -9.48889 5.36267 -10.9739
ltibia 25.4398
lfoot 4.73039 -9.85077
ltoes 6.44766
